<?xml version="1.0" standalone="no"?>
<!DOCTYPE svg PUBLIC "-//W3C//DTD SVG 20010904//EN"
 "http://www.w3.org/TR/2001/REC-SVG-20010904/DTD/svg10.dtd">
<svg version="1.0" xmlns="http://www.w3.org/2000/svg"
 width="300.000000pt" height="219.000000pt" viewBox="0 0 300.000000 219.000000"
 preserveAspectRatio="xMidYMid meet">
<metadata>
Created by potrace 1.10, written by Peter Selinger 2001-2011
</metadata>
<g transform="translate(0.000000,219.000000) scale(0.100000,-0.100000)"
fill="#000000" stroke="none">
<path d="M1134 1432 c-35 -2 -57 -9 -69 -22 -17 -19 -18 -19 -53 1 -27 14 -56
19 -108 19 -87 0 -99 -10 -89 -72 9 -48 9 -197 1 -205 -3 -3 2 -18 11 -33 15
-26 15 -29 -6 -59 -33 -46 -27 -113 15 -157 26 -29 38 -34 76 -34 24 0 53 7
64 15 25 19 48 19 65 -1 10 -13 30 -15 93 -13 98 3 172 -9 157 -24 -14 -14
-14 -77 -1 -77 6 0 10 16 10 36 0 31 3 35 23 32 18 -2 22 -10 23 -40 1 -42 -3
-46 -21 -22 -11 15 -12 15 -18 -5 -5 -22 -3 -22 62 -20 l66 3 -3 32 c-4 36
-17 45 -47 33 -17 -6 -17 -8 -2 -8 21 -1 23 -21 1 -21 -8 0 -13 -4 -9 -10 3
-5 12 -7 20 -3 8 3 15 0 15 -6 0 -6 -11 -11 -25 -11 -22 0 -25 4 -25 40 l0 40
79 0 c60 0 80 -3 84 -15 4 -8 2 -17 -3 -20 -7 -4 -6 -13 0 -26 13 -24 2 -25
-16 -1 -13 16 -13 16 -14 0 0 -35 -20 -17 -20 18 0 21 -4 33 -10 29 -5 -3 -10
-19 -10 -35 0 -34 16 -41 92 -40 131 2 124 0 120 37 -2 18 -8 33 -13 33 -5 0
-9 5 -9 10 0 6 15 10 33 10 20 0 27 3 19 8 -7 5 -56 8 -110 6 -117 -2 -127 0
-107 29 8 12 15 42 16 67 0 25 3 38 6 30 3 -8 12 -19 19 -23 8 -4 14 -16 14
-26 0 -34 38 -61 85 -61 39 0 47 4 75 40 17 22 38 40 46 40 9 0 13 -4 10 -8
-7 -12 32 -72 47 -72 7 0 18 5 25 12 9 9 17 8 37 -2 22 -12 27 -11 45 5 18 16
21 17 44 1 48 -31 73 1 51 63 -12 35 -12 41 2 53 13 10 18 9 34 -11 11 -13 19
-38 19 -55 0 -18 6 -41 14 -52 23 -29 49 -7 64 57 8 29 25 66 38 82 28 33 31
59 9 81 -14 14 -14 19 1 47 29 57 13 139 -32 156 -11 4 -8 10 11 25 32 25 32
51 -1 77 -34 27 -78 26 -134 -2 l-45 -22 -20 23 c-20 24 -21 24 -44 5 -19 -16
-23 -25 -17 -47 8 -33 28 -24 24 12 -2 18 2 27 15 30 22 5 23 -35 1 -67 -16
-22 -16 -23 4 -12 19 10 23 8 35 -21 18 -41 41 -62 90 -79 36 -13 47 -31 27
-44 -6 -4 -22 0 -35 9 -33 22 -61 20 -79 -5 -13 -20 -13 -25 0 -51 18 -35 14
-44 -14 -29 -12 6 -31 11 -44 11 -18 0 -26 9 -39 44 -20 56 -25 177 -8 205 11
17 10 23 -5 40 -26 29 -64 26 -110 -9 -47 -36 -50 -36 -79 -10 -12 11 -39 26
-60 32 -33 10 -44 9 -67 -4 -25 -14 -29 -14 -43 -1 -12 12 -37 16 -102 15 -76
0 -90 -3 -111 -23 -22 -21 -25 -21 -41 -6 -27 24 -62 32 -119 29z m-145 -37
c82 -42 35 -181 -58 -173 -24 2 -36 8 -36 18 0 11 9 14 33 12 49 -3 72 13 72
51 0 38 -7 50 -37 66 -24 12 -72 15 -74 4 -1 -5 -4 -62 -8 -128 -5 -99 -9
-120 -22 -123 -14 -3 -16 11 -11 118 4 108 3 122 -13 134 -10 7 -15 18 -11 24
10 17 131 15 165 -3z m225 4 c54 -25 56 -95 4 -134 l-23 -18 38 -37 c24 -24
37 -47 37 -64 0 -33 -27 -35 -39 -3 -12 30 -58 85 -83 98 -19 10 -20 9 -13
-50 6 -51 4 -62 -9 -67 -9 -4 -19 -4 -23 -1 -3 3 -5 60 -4 126 2 103 0 121
-15 129 -9 5 -14 14 -10 21 9 14 108 14 140 0z m291 -9 c0 -12 -13 -15 -67
-13 l-68 2 0 -44 0 -45 55 0 c42 0 55 -3 55 -15 0 -12 -13 -15 -55 -15 l-55 0
0 -56 0 -56 67 4 c59 3 68 1 71 -15 3 -16 -4 -18 -85 -15 l-88 3 0 117 c-1 78
-5 122 -13 130 -7 7 -12 18 -12 25 0 11 21 13 98 11 78 -2 97 -6 97 -18z m108
9 c12 -6 38 -27 59 -46 l36 -35 37 36 c40 40 80 60 103 51 12 -5 12 -8 -3 -25
-15 -17 -17 -31 -11 -106 4 -47 12 -97 18 -110 9 -18 8 -28 0 -36 -22 -22 -34
8 -44 109 -12 133 -12 133 -53 93 -33 -32 -33 -34 -19 -61 23 -45 18 -96 -12
-124 -31 -29 -47 -31 -68 -9 -22 22 -20 54 8 106 l24 46 -39 38 c-21 21 -42
35 -46 31 -3 -4 -11 -59 -16 -122 -8 -85 -14 -115 -24 -115 -16 0 -16 21 -2
147 8 74 8 98 -2 103 -16 10 -4 40 16 40 9 0 26 -5 38 -11z m525 -5 c23 -16
29 -39 13 -48 -5 -3 -20 3 -34 14 -30 24 -60 26 -77 5 -22 -26 -7 -49 45 -68
65 -24 85 -43 85 -81 -1 -74 -97 -123 -158 -80 -24 17 -30 54 -9 54 8 0 22 -9
32 -20 34 -37 105 -17 105 29 0 24 -21 41 -84 66 -38 15 -52 26 -54 44 -6 41
7 68 40 84 42 21 68 21 96 1z m-830 -141 c-3 -69 -18 -83 -42 -38 -17 31 -17
35 -2 56 9 13 16 44 17 69 l0 45 15 -39 c7 -21 13 -63 12 -93z m231 59 c-1
-72 -14 -137 -26 -135 -6 1 -32 4 -58 7 -26 2 -49 7 -52 10 -14 14 10 36 46
42 69 11 69 74 0 74 -32 0 -39 3 -39 20 0 17 7 20 43 20 23 0 49 4 57 9 23 15
30 3 29 -47z m-575 13 c7 -20 -3 -45 -20 -45 -16 0 -33 30 -27 48 6 17 40 15
47 -3z m105 -117 c2 -85 16 -113 51 -105 12 3 15 -8 13 -57 -1 -34 -2 -64 -3
-68 -2 -5 -3 -12 -4 -17 -3 -21 -19 -25 -32 -7 -8 12 -14 43 -14 75 0 63 -21
97 -50 81 -12 -6 -36 -5 -69 3 -40 9 -51 16 -51 31 0 27 29 56 56 56 23 0 92
73 86 92 -1 5 1 7 6 4 5 -3 10 -42 11 -88z m567 45 c-5 -12 -10 -13 -17 -6 -8
8 -7 18 2 34 12 21 14 22 17 6 2 -10 1 -25 -2 -34z m-432 -117 c10 -17 12 -27
5 -31 -12 -8 -49 23 -49 42 0 22 26 15 44 -11z m586 10 c0 -18 -17 -29 -30
-21 -8 5 -7 11 1 21 15 18 29 18 29 0z m-156 -47 c-2 -4 -11 -6 -19 -2 -16 5
-20 25 -8 37 9 9 34 -24 27 -35z m-310 15 c14 -14 19 -43 19 -119 0 -49 -3
-55 -27 -55 -14 0 -27 4 -30 8 -2 4 -6 41 -7 82 -4 96 9 120 45 84z m224 -22
c2 -7 -2 -10 -12 -6 -9 3 -16 11 -16 16 0 13 23 5 28 -10z m575 11 c-7 -2 -13
-11 -13 -18 0 -8 -4 -17 -10 -20 -15 -9 -30 4 -24 20 4 8 10 12 15 9 5 -3 9 0
9 5 0 6 8 11 18 10 10 0 12 -3 5 -6z m-1135 -27 c22 -22 5 -39 -21 -21 -12 8
-34 15 -49 15 -65 0 -92 -87 -43 -135 30 -31 54 -31 89 -4 37 29 48 13 13 -17
-78 -67 -180 11 -147 112 22 65 114 95 158 50z m64 -36 c-5 -99 32 -150 88
-120 19 10 21 19 19 91 -2 79 2 96 18 86 14 -9 10 -200 -5 -205 -6 -2 -12 1
-12 6 0 7 -10 7 -28 0 -35 -14 -78 -4 -91 20 -5 10 -10 49 -11 87 -2 95 -2 97
13 92 8 -3 11 -21 9 -57z m199 48 c0 -7 0 -50 -1 -95 l-1 -83 45 0 c26 0 46
-5 46 -10 0 -7 -22 -10 -57 -8 l-58 3 -1 95 c0 52 1 98 3 103 6 12 23 8 24 -5z
m143 -94 c-1 -74 -4 -99 -14 -99 -9 0 -12 23 -12 93 1 120 0 114 14 110 9 -3
12 -34 12 -104z m93 86 c19 -11 45 -43 63 -77 l31 -58 -6 72 c-3 44 -1 74 5
78 15 9 19 -10 22 -113 4 -117 -9 -119 -66 -7 -26 51 -48 81 -60 84 -18 3 -19
-2 -12 -83 5 -73 4 -86 -9 -86 -12 0 -15 16 -15 83 0 45 -3 92 -6 105 -8 28
10 29 53 2z m323 5 c0 -8 -5 -15 -11 -15 -10 0 -9 -32 7 -142 5 -30 3 -38 -10
-38 -10 0 -16 9 -16 23 0 53 -11 67 -49 67 -34 0 -39 -4 -59 -45 -12 -25 -29
-45 -37 -45 -20 0 -19 3 11 47 14 21 21 39 15 41 -16 5 -13 22 3 22 11 0 56
60 56 74 0 1 -16 0 -35 -2 -32 -4 -44 5 -28 21 3 4 39 7 80 7 58 0 73 -3 73
-15z m148 -5 c28 -27 28 -56 -1 -82 l-23 -20 28 -28 c15 -16 28 -36 28 -44 0
-22 -27 -20 -34 2 -4 10 -20 31 -36 47 l-30 29 0 -47 c0 -35 -4 -47 -15 -47
-12 0 -15 17 -15 89 0 60 -4 91 -12 93 -25 9 3 25 45 26 31 2 49 -4 65 -18z
m104 -41 c12 -22 24 -39 28 -39 3 0 19 23 35 50 16 28 33 50 37 50 19 0 5 -40
-27 -77 -29 -34 -35 -49 -35 -87 0 -34 -4 -46 -15 -46 -11 0 -15 12 -15 46 0
37 -7 56 -36 95 -19 27 -32 53 -29 59 9 15 30 -4 57 -51z m-404 -1 c2 -9 -5
-18 -14 -22 -22 -8 -24 -5 -17 22 6 25 26 25 31 0z m-695 -8 c37 -16 44 -24
40 -40 -6 -22 -51 -50 -80 -50 -22 0 -53 48 -46 70 4 12 31 40 39 40 1 0 22
-9 47 -20z m471 -173 c-8 -5 -22 -6 -31 -3 -12 5 -13 9 -3 21 9 11 16 12 31 2
16 -10 16 -13 3 -20z m146 -27 c0 -5 -8 -11 -17 -11 -17 -1 -17 -2 0 -6 21 -5
23 -23 2 -23 -8 0 -15 -4 -15 -9 0 -21 36 -4 45 21 14 40 26 38 41 -4 7 -22 9
-38 3 -38 -5 0 -9 5 -9 10 0 6 -7 10 -15 10 -8 0 -15 -4 -15 -10 0 -5 -13 -10
-30 -10 -28 0 -30 2 -30 40 0 33 3 40 20 40 11 0 20 -4 20 -10z"/>
<path d="M1137 1373 c-4 -3 -7 -28 -7 -55 0 -48 0 -48 33 -48 40 0 57 15 57
51 0 40 -59 76 -83 52z"/>
<path d="M1680 1231 c-14 -36 -10 -76 9 -76 23 0 34 29 27 68 -8 45 -19 47
-36 8z"/>
<path d="M1747 1069 c-9 -5 -24 -23 -32 -39 l-16 -30 36 0 c34 0 35 1 35 40 0
22 -1 40 -2 40 -2 0 -11 -5 -21 -11z"/>
<path d="M1890 1031 c0 -44 12 -51 44 -28 28 20 18 61 -16 65 -27 3 -28 1 -28
-37z"/>
<path d="M1681 788 c0 -28 2 -30 9 -13 12 28 12 45 0 45 -5 0 -10 -15 -9 -32z"/>
</g>
</svg>
